<?xml version="1.0" encoding="UTF-8"?>
<svg width="2732px" height="2731px" viewBox="0 0 2732 2731" version="1.1" xmlns="http://www.w3.org/2000/svg" xmlns:xlink="http://www.w3.org/1999/xlink">
    <!-- Generator: Sketch 47.1 (45422) - http://www.bohemiancoding.com/sketch -->
    <title>Splash@2x</title>
    <desc>Created with Sketch.</desc>
    <defs></defs>
    <g id="Page-1" stroke="none" stroke-width="1" fill="none" fill-rule="evenodd">
        <rect id="Rectangle" fill-opacity="0.997735507" fill="#FF84C4" x="0" y="0" width="2732" height="2731"></rect>
        <path d="M744.47619,1318.38095 L925.428571,1318.38095 C976.8574,1318.38095 1013.84116,1309.33342 1036.38095,1291.2381 C1058.92075,1273.14277 1070.19048,1246.00018 1070.19048,1209.80952 C1070.19048,1185.68242 1066.38099,1166.63499 1058.7619,1152.66667 C1051.14282,1138.69834 1040.66673,1127.9048 1027.33333,1120.28571 C1013.99993,1112.66663 998.603262,1107.74604 981.142857,1105.52381 C963.682452,1103.30158 945.11121,1102.19048 925.428571,1102.19048 L744.47619,1102.19048 L744.47619,1318.38095 Z M654,1026 L900.666667,1026 C915.269914,1026 930.984043,1026.15873 947.809524,1026.47619 C964.635005,1026.79365 981.301505,1027.74602 997.809524,1029.33333 C1014.31754,1030.92064 1029.71421,1033.30157 1044,1036.47619 C1058.28579,1039.65081 1070.50789,1044.41267 1080.66667,1050.7619 C1102.889,1064.0953 1121.7777,1082.50782 1137.33333,1106 C1152.88897,1129.49218 1160.66667,1158.38078 1160.66667,1192.66667 C1160.66667,1228.85732 1151.9366,1260.12685 1134.47619,1286.47619 C1117.01579,1312.82553 1092.0954,1332.34914 1059.71429,1345.04762 L1059.71429,1346.95238 C1101.61926,1355.84131 1133.68243,1374.88874 1155.90476,1404.09524 C1178.1271,1433.30173 1189.2381,1468.85693 1189.2381,1510.7619 C1189.2381,1535.52393 1184.7937,1559.65068 1175.90476,1583.14286 C1167.01583,1606.63504 1153.84136,1627.42848 1136.38095,1645.52381 C1118.92055,1663.61914 1097.33346,1678.22217 1071.61905,1689.33333 C1045.90463,1700.4445 1016.22239,1706 982.571429,1706 L654,1706 L654,1026 Z M744.47619,1629.80952 L971.142857,1629.80952 C1011.14306,1629.80952 1042.41259,1619.01598 1064.95238,1597.42857 C1087.49218,1575.84116 1098.7619,1546.00019 1098.7619,1507.90476 C1098.7619,1485.68243 1094.63496,1467.26991 1086.38095,1452.66667 C1078.12694,1438.06342 1067.17467,1426.47623 1053.52381,1417.90476 C1039.87295,1409.33329 1024.15882,1403.3016 1006.38095,1399.80952 C988.603086,1396.31744 970.190571,1394.57143 951.142857,1394.57143 L744.47619,1394.57143 L744.47619,1629.80952 Z M1661.61905,1351.71429 L1838.7619,1351.71429 C1890.19073,1352.34921 1927.8094,1341.87312 1951.61905,1320.28571 C1975.42869,1298.6983 1987.33333,1267.5875 1987.33333,1226.95238 C1987.33333,1186.31726 1975.42869,1155.36519 1951.61905,1134.09524 C1927.8094,1112.82529 1890.19073,1102.19048 1838.7619,1102.19048 L1661.61905,1102.19048 L1661.61905,1351.71429 Z M1571.14286,1026 L1869.2381,1026 C1937.80987,1026 1989.71411,1043.61887 2024.95238,1078.85714 C2060.19065,1114.09541 2077.80952,1163.46 2077.80952,1226.95238 C2077.80952,1290.44476 2060.19065,1339.96808 2024.95238,1375.52381 C1989.71411,1411.07954 1937.80987,1428.53969 1869.2381,1427.90476 L1661.61905,1427.90476 L1661.61905,1706 L1571.14286,1706 L1571.14286,1026 Z" id="B-P" fill-opacity="0.871320199" fill="#F0FFFF"></path>
    </g>
</svg>